<mxfile host="app.diagrams.net" agent="Mozilla/5.0 (Windows NT 10.0; Win64; x64) AppleWebKit/537.36 (KHTML, like Gecko) Chrome/127.0.0.0 Safari/537.36 Edg/127.0.0.0" version="24.7.7">
  <diagram name="Page-1" id="9YXUE6WsC9lNTFiDtrpk">
    <mxGraphModel dx="2869" dy="1143" grid="1" gridSize="10" guides="1" tooltips="1" connect="1" arrows="1" fold="1" page="1" pageScale="1" pageWidth="850" pageHeight="1100" math="0" shadow="0">
      <root>
        <mxCell id="0" />
        <mxCell id="1" parent="0" />
        <mxCell id="MSeKVoZIm2LpkKKofAkH-1" value="" style="rounded=0;whiteSpace=wrap;html=1;" parent="1" vertex="1">
          <mxGeometry x="-205" y="140" width="425" height="230" as="geometry" />
        </mxCell>
        <mxCell id="bah0uvGRH5clV5_6ylq--1" value="&lt;font style=&quot;font-size: 23px;&quot;&gt;App Logo&lt;/font&gt;" style="text;html=1;align=center;verticalAlign=middle;whiteSpace=wrap;rounded=0;" vertex="1" parent="1">
          <mxGeometry x="-107.5" y="225" width="230" height="60" as="geometry" />
        </mxCell>
        <mxCell id="bah0uvGRH5clV5_6ylq--2" value="" style="rounded=0;whiteSpace=wrap;html=1;" vertex="1" parent="1">
          <mxGeometry x="-205" y="470" width="425" height="230" as="geometry" />
        </mxCell>
        <mxCell id="bah0uvGRH5clV5_6ylq--3" value="&lt;font style=&quot;font-size: 16px;&quot;&gt;Login/Sign Up&lt;/font&gt;" style="text;html=1;align=center;verticalAlign=middle;whiteSpace=wrap;rounded=0;" vertex="1" parent="1">
          <mxGeometry x="-107.5" y="490" width="230" height="60" as="geometry" />
        </mxCell>
        <mxCell id="bah0uvGRH5clV5_6ylq--4" value="IC" style="rounded=0;whiteSpace=wrap;html=1;" vertex="1" parent="1">
          <mxGeometry x="-97.5" y="560" width="210" height="30" as="geometry" />
        </mxCell>
        <mxCell id="bah0uvGRH5clV5_6ylq--5" value="Email" style="rounded=0;whiteSpace=wrap;html=1;" vertex="1" parent="1">
          <mxGeometry x="-97.5" y="600" width="210" height="30" as="geometry" />
        </mxCell>
        <mxCell id="bah0uvGRH5clV5_6ylq--6" value="Password" style="rounded=0;whiteSpace=wrap;html=1;" vertex="1" parent="1">
          <mxGeometry x="-97.5" y="640" width="210" height="30" as="geometry" />
        </mxCell>
      </root>
    </mxGraphModel>
  </diagram>
</mxfile>
